<?xml version="1.0" encoding="UTF-8" standalone="no"?>
<!DOCTYPE svg PUBLIC "-//W3C//DTD SVG 20010904//EN"
              "http://www.w3.org/TR/2001/REC-SVG-20010904/DTD/svg10.dtd">

<svg xmlns="http://www.w3.org/2000/svg"
     width="370.106mm" height="207.672mm"
     viewBox="0 0 1399 785">
  <path id="Seleção"
        fill="none" stroke="blue" stroke-width="1"
        d="M 435.00,331.00
           C 435.00,331.00 423.73,410.00 423.73,410.00
             423.73,410.00 418.00,453.00 418.00,453.00
             418.00,453.00 444.00,453.00 444.00,453.00
             444.00,453.00 449.73,412.00 449.73,412.00
             450.21,408.67 451.52,396.45 453.01,394.31
             454.94,391.54 459.01,392.01 462.00,392.00
             462.00,392.00 505.00,392.00 505.00,392.00
             505.00,392.00 508.00,366.00 508.00,366.00
             508.00,366.00 456.00,366.00 456.00,366.00
             457.31,359.18 457.50,357.14 465.00,357.00
             474.07,356.84 501.70,356.22 509.00,358.00
             509.00,358.00 513.00,331.00 513.00,331.00
             513.00,331.00 435.00,331.00 435.00,331.00 Z
           M 866.00,358.00
           C 872.21,356.49 884.79,356.49 891.00,358.00
             892.99,351.96 894.94,337.46 895.00,331.00
             895.00,331.00 878.00,331.00 878.00,331.00
             878.00,331.00 870.58,332.02 870.58,332.02
             870.58,332.02 868.13,339.00 868.13,339.00
             868.13,339.00 866.00,358.00 866.00,358.00 Z
           M 517.00,366.00
           C 517.00,366.00 513.00,392.00 513.00,392.00
             513.00,392.00 548.00,392.00 548.00,392.00
             548.00,392.00 547.00,401.00 547.00,401.00
             547.00,401.00 512.00,401.00 512.00,401.00
             512.00,401.00 505.00,453.00 505.00,453.00
             505.00,453.00 531.00,453.00 531.00,453.00
             531.00,453.00 534.00,425.00 534.00,425.00
             536.75,430.22 538.47,446.52 539.00,453.00
             539.00,453.00 635.00,453.00 635.00,453.00
             635.00,453.00 638.00,427.00 638.00,427.00
             638.00,427.00 570.00,427.00 570.00,427.00
             558.43,426.92 562.24,423.16 559.00,410.00
             559.00,410.00 570.41,408.98 570.41,408.98
             570.41,408.98 573.42,397.00 573.42,397.00
             573.42,397.00 578.00,366.00 578.00,366.00
             578.00,366.00 517.00,366.00 517.00,366.00 Z
           M 586.00,366.00
           C 586.00,366.00 579.00,418.00 579.00,418.00
             579.00,418.00 640.00,418.00 640.00,418.00
             640.00,418.00 642.00,401.00 642.00,401.00
             642.00,401.00 608.00,401.00 608.00,401.00
             608.07,398.28 607.89,394.77 610.43,393.02
             612.24,391.78 615.84,392.00 618.00,392.00
             618.00,392.00 644.00,392.00 644.00,392.00
             644.00,392.00 647.00,366.00 647.00,366.00
             647.00,366.00 586.00,366.00 586.00,366.00 Z
           M 648.00,418.00
           C 648.00,418.00 683.00,418.00 683.00,418.00
             683.00,418.00 682.00,427.00 682.00,427.00
             682.00,427.00 647.00,427.00 647.00,427.00
             647.00,427.00 644.00,453.00 644.00,453.00
             644.00,453.00 696.00,453.00 696.00,453.00
             696.00,453.00 703.98,451.40 703.98,451.40
             703.98,451.40 706.43,438.00 706.43,438.00
             706.43,438.00 712.00,401.00 712.00,401.00
             712.00,401.00 677.00,401.00 677.00,401.00
             677.00,401.00 678.00,392.00 678.00,392.00
             678.00,392.00 713.00,392.00 713.00,392.00
             713.00,392.00 717.00,366.00 717.00,366.00
             717.00,366.00 664.00,366.00 664.00,366.00
             664.00,366.00 656.17,367.57 656.17,367.57
             656.17,367.57 653.58,382.00 653.58,382.00
             653.58,382.00 648.00,418.00 648.00,418.00 Z
           M 725.00,366.00
           C 725.00,366.00 722.13,388.00 722.13,388.00
             722.13,388.00 715.87,432.00 715.87,432.00
             715.87,432.00 713.00,453.00 713.00,453.00
             713.00,453.00 835.00,453.00 835.00,453.00
             835.00,453.00 842.40,451.98 842.40,451.98
             842.40,451.98 844.58,445.00 844.58,445.00
             844.58,445.00 847.00,427.00 847.00,427.00
             847.00,427.00 778.00,427.00 778.00,427.00
             778.00,427.00 786.00,366.00 786.00,366.00
             786.00,366.00 725.00,366.00 725.00,366.00 Z
           M 788.00,418.00
           C 788.00,418.00 840.00,418.00 840.00,418.00
             840.00,418.00 847.83,416.43 847.83,416.43
             847.83,416.43 850.58,402.00 850.58,402.00
             850.58,402.00 856.00,366.00 856.00,366.00
             856.00,366.00 838.00,366.00 838.00,366.00
             838.00,366.00 830.60,367.02 830.60,367.02
             830.60,367.02 828.08,376.00 828.08,376.00
             828.08,376.00 825.00,401.00 825.00,401.00
             825.00,401.00 816.00,401.00 816.00,401.00
             816.00,401.00 821.00,366.00 821.00,366.00
             821.00,366.00 801.00,366.00 801.00,366.00
             793.77,366.13 794.22,367.69 792.95,379.00
             792.95,379.00 788.00,418.00 788.00,418.00 Z
           M 864.00,366.00
           C 864.00,366.00 861.13,388.00 861.13,388.00
             861.13,388.00 854.87,432.00 854.87,432.00
             854.87,432.00 852.00,453.00 852.00,453.00
             852.00,453.00 878.00,453.00 878.00,453.00
             878.00,453.00 884.43,408.00 884.43,408.00
             884.43,408.00 890.00,366.00 890.00,366.00
             890.00,366.00 864.00,366.00 864.00,366.00 Z
           M 899.00,366.00
           C 899.00,366.00 911.80,397.00 911.80,397.00
             911.80,397.00 915.97,409.00 915.97,409.00
             915.97,409.00 907.58,423.00 907.58,423.00
             907.58,423.00 887.00,453.00 887.00,453.00
             887.00,453.00 911.82,452.40 911.82,452.40
             911.82,452.40 918.69,444.00 918.69,444.00
             918.69,444.00 931.00,424.00 931.00,424.00
             931.00,424.00 938.95,443.00 938.95,443.00
             938.95,443.00 943.50,451.98 943.50,451.98
             943.50,451.98 950.00,453.00 950.00,453.00
             950.00,453.00 969.00,453.00 969.00,453.00
             969.00,453.00 956.72,424.00 956.72,424.00
             956.72,424.00 951.83,410.00 951.83,410.00
             951.83,410.00 960.42,396.00 960.42,396.00
             960.42,396.00 981.00,366.00 981.00,366.00
             981.00,366.00 962.00,366.00 962.00,366.00
             962.00,366.00 955.32,367.02 955.32,367.02
             955.32,367.02 949.00,375.00 949.00,375.00
             949.00,375.00 935.00,395.00 935.00,395.00
             935.00,395.00 928.69,376.00 928.69,376.00
             928.69,376.00 925.01,367.57 925.01,367.57
             925.01,367.57 919.00,366.00 919.00,366.00
             919.00,366.00 899.00,366.00 899.00,366.00 Z
           M 756.00,392.00
           C 756.00,392.00 752.87,417.00 752.87,417.00
             752.87,417.00 750.40,425.98 750.40,425.98
             750.40,425.98 743.00,427.00 743.00,427.00
             743.00,427.00 746.13,402.00 746.13,402.00
             746.13,402.00 748.60,393.02 748.60,393.02
             748.60,393.02 756.00,392.00 756.00,392.00 Z" />
</svg>
