<?xml version="1.0" encoding="UTF-8" standalone="no"?>
<!DOCTYPE svg PUBLIC "-//W3C//DTD SVG 20010904//EN"
              "http://www.w3.org/TR/2001/REC-SVG-20010904/DTD/svg10.dtd">

<svg xmlns="http://www.w3.org/2000/svg" width="200px" height="200px" viewBox="0 0 200 200" id="logo-fresquix">

				<path id="" fill="white" stroke="white" stroke-width="1"
				d="M 140.00,168.00
				C 140.00,168.00 134.00,158.00 134.00,158.00
					125.86,160.32 124.12,163.11 112.00,165.55
					91.64,169.65 73.07,164.13 57.00,151.19
					53.15,148.09 41.60,136.35 41.43,131.42
					41.35,128.96 47.08,121.38 48.67,119.00
					53.16,112.27 64.51,96.51 67.00,90.00
					72.16,94.06 75.80,100.31 79.00,106.00
					79.00,106.00 81.00,106.00 81.00,106.00
					81.00,106.00 104.00,72.00 104.00,72.00
					104.00,72.00 115.00,90.00 115.00,90.00
					115.00,90.00 127.00,106.00 127.00,106.00
					127.00,106.00 137.00,90.00 137.00,90.00
					137.00,90.00 139.00,90.00 139.00,90.00
					139.00,90.00 169.00,136.00 169.00,136.00
					174.64,130.10 177.90,115.12 178.00,107.00
					178.00,107.00 178.00,94.00 178.00,94.00
					177.92,76.39 167.82,56.59 155.72,44.17
					126.23,13.91 77.18,13.86 46.00,41.29
					17.95,65.97 12.56,109.31 31.45,141.00
					44.05,162.14 68.91,178.70 94.00,179.00
					110.09,179.18 126.40,177.63 140.00,168.00 Z
				M 166.00,108.00
				C 166.00,108.00 156.67,96.00 156.67,96.00
					156.67,96.00 139.00,68.00 139.00,68.00
					139.00,68.00 127.00,85.00 127.00,85.00
					127.00,85.00 116.67,71.00 116.67,71.00
					116.67,71.00 104.00,51.00 104.00,51.00
					104.00,51.00 102.00,51.00 102.00,51.00
					102.00,51.00 91.00,69.00 91.00,69.00
					91.00,69.00 79.00,85.00 79.00,85.00
					79.00,85.00 69.00,68.00 69.00,68.00
					69.00,68.00 36.00,117.00 36.00,117.00
					33.15,113.28 33.06,109.56 33.00,105.00
					33.00,105.00 33.00,96.00 33.00,96.00
					33.23,76.48 45.01,56.21 61.00,45.36
					94.37,22.72 139.50,33.03 158.68,69.00
					165.96,82.66 166.00,93.17 166.00,108.00 Z" />

			</svg>
